<svg width="0" height="0" class="hidden">
  <symbol fill="none" xmlns="http://www.w3.org/2000/svg" viewBox="0 0 24 24" id="ico-location-on">
    <path d="M12 2C8.13 2 5 5.13 5 9C5 13.17 9.42 18.92 11.24 21.11C11.64 21.59 12.37 21.59 12.77 21.11C14.58 18.92 19 13.17 19 9C19 5.13 15.87 2 12 2ZM12 11.5C11.337 11.5 10.7011 11.2366 10.2322 10.7678C9.76339 10.2989 9.5 9.66304 9.5 9C9.5 8.33696 9.76339 7.70107 10.2322 7.23223C10.7011 6.76339 11.337 6.5 12 6.5C12.663 6.5 13.2989 6.76339 13.7678 7.23223C14.2366 7.70107 14.5 8.33696 14.5 9C14.5 9.66304 14.2366 10.2989 13.7678 10.7678C13.2989 11.2366 12.663 11.5 12 11.5V11.5Z" fill="#BDBDBD"></path>
  </symbol>
  <symbol fill="none" xmlns="http://www.w3.org/2000/svg" viewBox="0 0 23 23" id="ico-phone-call">
    <path d="M19.1666 10.5408H21.0833C21.0833 5.62454 17.3717 1.91675 12.4487 1.91675V3.83341C16.3415 3.83341 19.1666 6.65379 19.1666 10.5408Z" fill="#BDBDBD"></path>
    <path d="M12.4584 7.66657C14.4737 7.66657 15.3334 8.5262 15.3334 10.5416H17.25C17.25 7.45095 15.549 5.7499 12.4584 5.7499V7.66657ZM15.7378 12.8828C15.5536 12.7154 15.3116 12.6261 15.0629 12.6338C14.8142 12.6415 14.5782 12.7456 14.4047 12.924L12.1114 15.2824C11.5594 15.177 10.4497 14.8311 9.30736 13.6916C8.16503 12.5483 7.81907 11.4357 7.71653 10.8875L10.0731 8.59328C10.2517 8.41994 10.3559 8.1839 10.3636 7.9351C10.3713 7.68631 10.2819 7.44428 10.1143 7.26024L6.57323 3.36653C6.40557 3.18191 6.17254 3.06993 5.92363 3.05436C5.67473 3.03879 5.42956 3.12087 5.24019 3.28315L3.16061 5.06661C2.99492 5.2329 2.89603 5.45421 2.88269 5.68857C2.86832 5.92815 2.59423 11.6034 6.9949 16.006C10.834 19.8441 15.6429 20.1249 16.9673 20.1249C17.1609 20.1249 17.2797 20.1192 17.3114 20.1172C17.5457 20.1041 17.7669 20.0048 17.9324 19.8384L19.7149 17.7578C19.8773 17.5686 19.9595 17.3235 19.9441 17.0746C19.9287 16.8257 19.8169 16.5926 19.6324 16.4248L15.7378 12.8828Z" fill="#BDBDBD"></path>
  </symbol>
  <symbol fill="none" xmlns="http://www.w3.org/2000/svg" viewBox="0 0 16 16" id="ico-search">
    <path fill-rule="evenodd" clip-rule="evenodd" d="M7.33325 2.66668C4.75592 2.66668 2.66659 4.75601 2.66659 7.33334C2.66659 9.91067 4.75592 12 7.33325 12C9.91058 12 11.9999 9.91067 11.9999 7.33334C11.9999 4.75601 9.91058 2.66668 7.33325 2.66668ZM1.33325 7.33334C1.33325 4.01963 4.01954 1.33334 7.33325 1.33334C10.647 1.33334 13.3333 4.01963 13.3333 7.33334C13.3333 10.6471 10.647 13.3333 7.33325 13.3333C4.01954 13.3333 1.33325 10.6471 1.33325 7.33334Z" fill="white"></path>
    <path fill-rule="evenodd" clip-rule="evenodd" d="M10.6286 10.6286C10.889 10.3682 11.3111 10.3682 11.5714 10.6286L14.4714 13.5286C14.7318 13.7889 14.7318 14.211 14.4714 14.4714C14.2111 14.7317 13.789 14.7317 13.5286 14.4714L10.6286 11.5714C10.3683 11.311 10.3683 10.8889 10.6286 10.6286Z" fill="white"></path>
  </symbol>
  <symbol fill="none" xmlns="http://www.w3.org/2000/svg" viewBox="0 0 14 14" id="ico-user">
    <path fill-rule="evenodd" clip-rule="evenodd" d="M2.60427 9.02094C3.15125 8.47396 3.89312 8.16666 4.66667 8.16666H9.33333C10.1069 8.16666 10.8487 8.47396 11.3957 9.02094C11.9427 9.56792 12.25 10.3098 12.25 11.0833V12.25C12.25 12.5722 11.9888 12.8333 11.6667 12.8333C11.3445 12.8333 11.0833 12.5722 11.0833 12.25V11.0833C11.0833 10.6192 10.899 10.1741 10.5708 9.84589C10.2426 9.51771 9.79746 9.33333 9.33333 9.33333H4.66667C4.20254 9.33333 3.75742 9.51771 3.42923 9.84589C3.10104 10.1741 2.91667 10.6192 2.91667 11.0833V12.25C2.91667 12.5722 2.6555 12.8333 2.33333 12.8333C2.01117 12.8333 1.75 12.5722 1.75 12.25V11.0833C1.75 10.3098 2.05729 9.56792 2.60427 9.02094Z" fill="white"></path>
    <path fill-rule="evenodd" clip-rule="evenodd" d="M6.99992 2.33333C6.03342 2.33333 5.24992 3.11683 5.24992 4.08333C5.24992 5.04983 6.03342 5.83333 6.99992 5.83333C7.96642 5.83333 8.74992 5.04983 8.74992 4.08333C8.74992 3.11683 7.96642 2.33333 6.99992 2.33333ZM4.08325 4.08333C4.08325 2.4725 5.38909 1.16666 6.99992 1.16666C8.61075 1.16666 9.91658 2.4725 9.91658 4.08333C9.91658 5.69416 8.61075 7 6.99992 7C5.38909 7 4.08325 5.69416 4.08325 4.08333Z" fill="white"></path>
  </symbol>
  <symbol fill="none" xmlns="http://www.w3.org/2000/svg" viewBox="0 0 21 21" id="ico-yt">
    <path d="M12.1831 10.3247L9.82477 9.22429C9.61897 9.12874 9.44992 9.23584 9.44992 9.46369V11.5364C9.44992 11.7642 9.61897 11.8713 9.82477 11.7758L12.182 10.6754C12.3889 10.5788 12.3889 10.4213 12.1831 10.3247ZM10.4999 0.420044C4.93282 0.420044 0.419922 4.93294 0.419922 10.5C0.419922 16.0671 4.93282 20.58 10.4999 20.58C16.067 20.58 20.5799 16.0671 20.5799 10.5C20.5799 4.93294 16.067 0.420044 10.4999 0.420044ZM10.4999 14.595C5.34022 14.595 5.24992 14.1299 5.24992 10.5C5.24992 6.87019 5.34022 6.40504 10.4999 6.40504C15.6596 6.40504 15.7499 6.87019 15.7499 10.5C15.7499 14.1299 15.6596 14.595 10.4999 14.595Z" fill="#BDBDBD"></path>
  </symbol>
  <symbol fill="none" xmlns="http://www.w3.org/2000/svg" viewBox="0 0 20 20" id="ico-email">
    <path d="M16.6666 3.33325H3.33329C2.41663 3.33325 1.67496 4.08325 1.67496 4.99992L1.66663 14.9999C1.66663 15.9166 2.41663 16.6666 3.33329 16.6666H16.6666C17.5833 16.6666 18.3333 15.9166 18.3333 14.9999V4.99992C18.3333 4.08325 17.5833 3.33325 16.6666 3.33325ZM16.3333 6.87492L10.4416 10.5583C10.175 10.7249 9.82496 10.7249 9.55829 10.5583L3.66663 6.87492C3.58307 6.82801 3.50989 6.76464 3.45153 6.68863C3.39317 6.61262 3.35084 6.52557 3.32711 6.43273C3.30337 6.33989 3.29871 6.2432 3.31342 6.14851C3.32813 6.05382 3.36191 5.9631 3.41269 5.88184C3.46348 5.80058 3.53023 5.73046 3.6089 5.67575C3.68757 5.62103 3.77652 5.58284 3.87037 5.5635C3.96423 5.54416 4.06103 5.54406 4.15492 5.56321C4.24881 5.58236 4.33785 5.62036 4.41663 5.67492L9.99996 9.16658L15.5833 5.67492C15.6621 5.62036 15.7511 5.58236 15.845 5.56321C15.9389 5.54406 16.0357 5.54416 16.1295 5.5635C16.2234 5.58284 16.3124 5.62103 16.391 5.67575C16.4697 5.73046 16.5364 5.80058 16.5872 5.88184C16.638 5.9631 16.6718 6.05382 16.6865 6.14851C16.7012 6.2432 16.6966 6.33989 16.6728 6.43273C16.6491 6.52557 16.6067 6.61262 16.5484 6.68863C16.49 6.76464 16.4169 6.82801 16.3333 6.87492Z" fill="#BDBDBD"></path>
  </symbol>
  <symbol fill="none" xmlns="http://www.w3.org/2000/svg" viewBox="0 0 20 20" id="ico-fb">
    <path d="M10.001 0.00195312C4.47895 0.00195312 0.00195312 4.47895 0.00195312 10.001C0.00195312 14.991 3.65795 19.127 8.43895 19.88V12.892H5.89895V10.001H8.43895V7.79795C8.43895 5.28995 9.93195 3.90695 12.215 3.90695C13.309 3.90695 14.455 4.10195 14.455 4.10195V6.56095H13.191C11.951 6.56095 11.563 7.33295 11.563 8.12395V9.99895H14.334L13.891 12.89H11.563V19.878C16.344 19.129 20 14.992 20 10.001C20 4.47895 15.523 0.00195312 10.001 0.00195312Z" fill="#BDBDBD"></path>
  </symbol>
  <symbol fill="none" xmlns="http://www.w3.org/2000/svg" viewBox="0 0 14 14" id="ico-home">
    <path fill-rule="evenodd" clip-rule="evenodd" d="M6.64195 0.70621C6.8526 0.542373 7.14757 0.542373 7.35821 0.70621L12.6082 4.78954C12.7503 4.90006 12.8334 5.06999 12.8334 5.25V11.6667C12.8334 12.1308 12.649 12.5759 12.3209 12.9041C11.9927 13.2323 11.5475 13.4167 11.0834 13.4167H2.91675C2.45262 13.4167 2.0075 13.2323 1.67931 12.9041C1.35112 12.5759 1.16675 12.1308 1.16675 11.6667V5.25C1.16675 5.06999 1.24986 4.90006 1.39195 4.78954L6.64195 0.70621ZM2.33341 5.5353V11.6667C2.33341 11.8214 2.39487 11.9697 2.50427 12.0791C2.61367 12.1885 2.76204 12.25 2.91675 12.25H11.0834C11.2381 12.25 11.3865 12.1885 11.4959 12.0791C11.6053 11.9697 11.6667 11.8214 11.6667 11.6667V5.5353L7.00008 1.90567L2.33341 5.5353Z" fill="white"></path>
    <path fill-rule="evenodd" clip-rule="evenodd" d="M4.66675 7C4.66675 6.67783 4.92792 6.41667 5.25008 6.41667H8.75008C9.07225 6.41667 9.33342 6.67783 9.33342 7V12.8333C9.33342 13.1555 9.07225 13.4167 8.75008 13.4167C8.42792 13.4167 8.16675 13.1555 8.16675 12.8333V7.58333H5.83342V12.8333C5.83342 13.1555 5.57225 13.4167 5.25008 13.4167C4.92792 13.4167 4.66675 13.1555 4.66675 12.8333V7Z" fill="white"></path>
  </symbol>
  <symbol fill="none" xmlns="http://www.w3.org/2000/svg" viewBox="0 0 20 20" id="ico-inst">
    <path d="M10 20C8.64583 20 7.35026 19.7363 6.11328 19.209C4.8763 18.6816 3.81185 17.972 2.91992 17.0801C2.02799 16.1882 1.31836 15.1237 0.791016 13.8867C0.263672 12.6497 0 11.3542 0 10C0 8.64583 0.263672 7.35026 0.791016 6.11328C1.31836 4.8763 2.02799 3.81185 2.91992 2.91992C3.81185 2.02799 4.8763 1.31836 6.11328 0.791016C7.35026 0.263672 8.64583 0 10 0C11.3542 0 12.6497 0.263672 13.8867 0.791016C15.1237 1.31836 16.1882 2.02799 17.0801 2.91992C17.972 3.81185 18.6816 4.8763 19.209 6.11328C19.7363 7.35026 20 8.64583 20 10C20 11.3542 19.7363 12.6497 19.209 13.8867C18.6816 15.1237 17.972 16.1882 17.0801 17.0801C16.1882 17.972 15.1237 18.6816 13.8867 19.209C12.6497 19.7363 11.3542 20 10 20ZM15 6.25C15 5.91146 14.8796 5.61849 14.6387 5.37109C14.3978 5.1237 14.1016 5 13.75 5H6.25C5.91146 5 5.61849 5.1237 5.37109 5.37109C5.1237 5.61849 5 5.91146 5 6.25V7.5H7.22656C7.98177 6.66667 8.90625 6.25 10 6.25C11.0938 6.25 12.0182 6.66667 12.7734 7.5H15V6.25ZM7.5 10C7.5 10.6901 7.74414 11.2793 8.23242 11.7676C8.7207 12.2559 9.3099 12.5 10 12.5C10.6901 12.5 11.2793 12.2559 11.7676 11.7676C12.2559 11.2793 12.5 10.6901 12.5 10C12.5 9.3099 12.2559 8.7207 11.7676 8.23242C11.2793 7.74414 10.6901 7.5 10 7.5C9.3099 7.5 8.7207 7.74414 8.23242 8.23242C7.74414 8.7207 7.5 9.3099 7.5 10ZM15 8.75H13.5156C13.6719 9.17969 13.75 9.59635 13.75 10C13.75 11.0417 13.3854 11.9271 12.6562 12.6562C11.9271 13.3854 11.0417 13.75 10 13.75C8.95833 13.75 8.07292 13.3854 7.34375 12.6562C6.61458 11.9271 6.25 11.0417 6.25 10C6.25 9.59635 6.32812 9.17969 6.48438 8.75H5V13.75C5 14.1016 5.12044 14.3978 5.36133 14.6387C5.60221 14.8796 5.89844 15 6.25 15H13.75C14.1016 15 14.3978 14.8796 14.6387 14.6387C14.8796 14.3978 15 14.1016 15 13.75V8.75Z" fill="#BDBDBD"></path>
  </symbol>
<symbol fill="none" xmlns="http://www.w3.org/2000/svg" viewBox="0 0 6 6" id="star">
    <path d="M1.33333 4L0 2L2 1.66667L3 0L4 1.66667L6 2.33333L4.66667 3.66667L5 6L3 5L1 6L1.33333 4Z" fill="#F2994A"></path>
  </symbol>
</svg>
